<?xml version="1.0" encoding="UTF-8" standalone="no"?>
<!-- Created using Karbon, part of Calligra: http://www.calligra.org/karbon -->

<svg
   width="51.2pt"
   height="51.2pt"
   version="1.1"
   id="svg9"
   sodipodi:docname="icon.svg"
   inkscape:version="1.1.2 (0a00cf5339, 2022-02-04)"
   inkscape:export-filename="/home/axel/Downloads/cu.axel.USub.png"
   inkscape:export-xdpi="89.999992"
   inkscape:export-ydpi="89.999992"
   xmlns:inkscape="http://www.inkscape.org/namespaces/inkscape"
   xmlns:sodipodi="http://sodipodi.sourceforge.net/DTD/sodipodi-0.dtd"
   xmlns="http://www.w3.org/2000/svg"
   xmlns:svg="http://www.w3.org/2000/svg">
  <sodipodi:namedview
     id="namedview11"
     pagecolor="#ffffff"
     bordercolor="#666666"
     borderopacity="1.0"
     inkscape:pageshadow="2"
     inkscape:pageopacity="0.0"
     inkscape:pagecheckerboard="0"
     inkscape:document-units="pt"
     showgrid="false"
     inkscape:zoom="7.6025389"
     inkscape:cx="31.831471"
     inkscape:cy="34.133334"
     inkscape:window-width="1280"
     inkscape:window-height="646"
     inkscape:window-x="0"
     inkscape:window-y="0"
     inkscape:window-maximized="1"
     inkscape:current-layer="layer0" />
  <defs
     id="defs2" />
  <g
     id="layer0">
    <ellipse
       id="circle2"
       cx="33.799988"
       cy="33.799988"
       fill="#e01b24"
       style="fill:#71bc42;fill-opacity:1;stroke-width:3.7796"
       inkscape:export-filename="/home/axel/Downloads/circle2.png"
       inkscape:export-xdpi="106.66685"
       inkscape:export-ydpi="106.66685"
       rx="28.799999"
       ry="21.59996pt" />
    <g
       id="g19"
       transform="matrix(1.7755501,0,0,1.7755501,12.826733,12.826733)"
       style="fill:#f9f9f9"
       inkscape:export-filename="/home/axel/Downloads/g19.png"
       inkscape:export-xdpi="106.66685"
       inkscape:export-ydpi="106.66685">
      <path
         d="M 16,20 H 8 V 6 h 8 M 16.67,4 H 15 V 2 H 9 V 4 H 7.33 A 1.33,1.33 0 0 0 6,5.33 V 20.67 C 6,21.4 6.6,22 7.33,22 h 9.34 A 1.33,1.33 0 0 0 18,20.67 V 5.33 C 18,4.6 17.4,4 16.67,4 Z"
         id="path2"
         style="fill:#f9f9f9" />
      <path
         d="M 10.664676,7.0713434 H 13.33514 V 14.415121 H 10.664676 V 7.0713434 m 0,12.0170906 V 16.41797 h 2.670464 v 2.670464 z"
         id="path2-3"
         style="fill:#f9f9f9;stroke-width:0.667616" />
    </g>
  </g>
</svg>
